<svg width="192" height="49" viewBox="0 0 192 49" fill="none" xmlns="http://www.w3.org/2000/svg">
<path d="M67.7429 25.0625V5.42614H71.8945V13.5281H80.3225V5.42614H84.4645V25.0625H80.3225V16.951H71.8945V25.0625H67.7429ZM99.3413 5.42614H103.493V18.1783C103.493 19.6101 103.151 20.8629 102.467 21.9368C101.79 23.0107 100.84 23.848 99.6194 24.4489C98.3985 25.0433 96.9763 25.3406 95.3527 25.3406C93.7227 25.3406 92.2973 25.0433 91.0764 24.4489C89.8556 23.848 88.9063 23.0107 88.2288 21.9368C87.5512 20.8629 87.2124 19.6101 87.2124 18.1783V5.42614H91.3641V17.8235C91.3641 18.5714 91.5271 19.2362 91.8531 19.8178C92.1855 20.3995 92.6521 20.8565 93.2529 21.1889C93.8538 21.5213 94.5537 21.6875 95.3527 21.6875C96.1581 21.6875 96.858 21.5213 97.4525 21.1889C98.0533 20.8565 98.5168 20.3995 98.8428 19.8178C99.1752 19.2362 99.3413 18.5714 99.3413 17.8235V5.42614ZM106.234 25.0625V5.42614H114.096C115.541 5.42614 116.745 5.64027 117.711 6.06854C118.676 6.4968 119.401 7.09126 119.887 7.85192C120.373 8.60618 120.616 9.4755 120.616 10.4599C120.616 11.2269 120.462 11.9013 120.156 12.483C119.849 13.0582 119.427 13.5312 118.89 13.902C118.359 14.2663 117.752 14.5252 117.068 14.6786V14.8704C117.816 14.9023 118.516 15.1133 119.168 15.5032C119.826 15.8931 120.36 16.4396 120.769 17.1428C121.178 17.8395 121.383 18.6705 121.383 19.6357C121.383 20.6776 121.124 21.6076 120.606 22.4258C120.095 23.2376 119.337 23.88 118.334 24.353C117.33 24.826 116.093 25.0625 114.623 25.0625H106.234ZM110.385 21.6683H113.77C114.927 21.6683 115.771 21.4478 116.301 21.0067C116.832 20.5593 117.097 19.9648 117.097 19.2234C117.097 18.68 116.966 18.2006 116.704 17.7852C116.442 17.3697 116.068 17.0437 115.582 16.8072C115.103 16.5707 114.531 16.4524 113.866 16.4524H110.385V21.6683ZM110.385 13.6431H113.463C114.032 13.6431 114.537 13.544 114.978 13.3459C115.425 13.1413 115.777 12.8537 116.033 12.483C116.295 12.1122 116.426 11.668 116.426 11.1502C116.426 10.4407 116.173 9.86861 115.668 9.43395C115.17 8.99929 114.46 8.78196 113.54 8.78196H110.385V13.6431ZM139.834 5.42614V25.0625H136.248L127.705 12.7035H127.561V25.0625H123.409V5.42614H127.053L135.529 17.7756H135.701V5.42614H139.834ZM142.589 25.0625V5.42614H155.82V8.84908H146.74V13.5281H155.14V16.951H146.74V21.6396H155.859V25.0625H142.589ZM158.446 25.0625V5.42614H166.193C167.683 5.42614 168.951 5.71058 170 6.27947C171.048 6.84197 171.847 7.625 172.397 8.62855C172.953 9.62571 173.231 10.7763 173.231 12.0803C173.231 13.3842 172.95 14.5348 172.387 15.532C171.825 16.5291 171.01 17.3058 169.942 17.8619C168.881 18.418 167.596 18.696 166.088 18.696H161.15V15.369H165.417C166.216 15.369 166.874 15.2315 167.392 14.9567C167.916 14.6754 168.306 14.2887 168.561 13.7965C168.824 13.2979 168.955 12.7259 168.955 12.0803C168.955 11.4283 168.824 10.8594 168.561 10.3736C168.306 9.88139 167.916 9.50106 167.392 9.2326C166.868 8.95774 166.203 8.82031 165.397 8.82031H162.598V25.0625H158.446ZM176.369 25.0625H171.921L178.699 5.42614H184.05L190.819 25.0625H186.37L181.451 9.91335H181.298L176.369 25.0625ZM176.091 17.3441H186.6V20.5849H176.091V17.3441Z" fill="white"/>
<path d="M90.6037 40.7344V32.8798H95.4745V33.9H91.7888V36.2932H95.1255V37.3095H91.7888V40.7344H90.6037ZM104.025 36.8071C104.025 37.6457 103.871 38.3668 103.565 38.9702C103.258 39.571 102.837 40.0338 102.303 40.3585C101.771 40.6807 101.166 40.8418 100.489 40.8418C99.8085 40.8418 99.2013 40.6807 98.6669 40.3585C98.1351 40.0338 97.7158 39.5697 97.409 38.9663C97.1022 38.3629 96.9487 37.6432 96.9487 36.8071C96.9487 35.9685 97.1022 35.2487 97.409 34.6479C97.7158 34.0445 98.1351 33.5817 98.6669 33.2595C99.2013 32.9348 99.8085 32.7724 100.489 32.7724C101.166 32.7724 101.771 32.9348 102.303 33.2595C102.837 33.5817 103.258 34.0445 103.565 34.6479C103.871 35.2487 104.025 35.9685 104.025 36.8071ZM102.851 36.8071C102.851 36.1679 102.748 35.6297 102.541 35.1925C102.336 34.7527 102.055 34.4203 101.697 34.1953C101.341 33.9678 100.939 33.854 100.489 33.854C100.036 33.854 99.6321 33.9678 99.2767 34.1953C98.9213 34.4203 98.6401 34.7527 98.433 35.1925C98.2284 35.6297 98.1262 36.1679 98.1262 36.8071C98.1262 37.4463 98.2284 37.9858 98.433 38.4256C98.6401 38.8628 98.9213 39.1952 99.2767 39.4227C99.6321 39.6477 100.036 39.7602 100.489 39.7602C100.939 39.7602 101.341 39.6477 101.697 39.4227C102.055 39.1952 102.336 38.8628 102.541 38.4256C102.748 37.9858 102.851 37.4463 102.851 36.8071ZM112.595 36.8071C112.595 37.6457 112.442 38.3668 112.135 38.9702C111.828 39.571 111.407 40.0338 110.873 40.3585C110.341 40.6807 109.737 40.8418 109.059 40.8418C108.379 40.8418 107.772 40.6807 107.237 40.3585C106.705 40.0338 106.286 39.5697 105.979 38.9663C105.673 38.3629 105.519 37.6432 105.519 36.8071C105.519 35.9685 105.673 35.2487 105.979 34.6479C106.286 34.0445 106.705 33.5817 107.237 33.2595C107.772 32.9348 108.379 32.7724 109.059 32.7724C109.737 32.7724 110.341 32.9348 110.873 33.2595C111.407 33.5817 111.828 34.0445 112.135 34.6479C112.442 35.2487 112.595 35.9685 112.595 36.8071ZM111.422 36.8071C111.422 36.1679 111.318 35.6297 111.111 35.1925C110.906 34.7527 110.625 34.4203 110.267 34.1953C109.912 33.9678 109.509 33.854 109.059 33.854C108.606 33.854 108.203 33.9678 107.847 34.1953C107.492 34.4203 107.21 34.7527 107.003 35.1925C106.799 35.6297 106.697 36.1679 106.697 36.8071C106.697 37.4463 106.799 37.9858 107.003 38.4256C107.21 38.8628 107.492 39.1952 107.847 39.4227C108.203 39.6477 108.606 39.7602 109.059 39.7602C109.509 39.7602 109.912 39.6477 110.267 39.4227C110.625 39.1952 110.906 38.8628 111.111 38.4256C111.318 37.9858 111.422 37.4463 111.422 36.8071ZM116.885 40.7344H114.343V32.8798H116.966C117.736 32.8798 118.396 33.0371 118.949 33.3516C119.501 33.6635 119.924 34.1122 120.218 34.6977C120.515 35.2807 120.663 35.98 120.663 36.7956C120.663 37.6138 120.514 38.3169 120.214 38.905C119.918 39.493 119.488 39.9456 118.926 40.2626C118.363 40.5771 117.683 40.7344 116.885 40.7344ZM115.528 39.6989H116.82C117.419 39.6989 117.916 39.5864 118.312 39.3614C118.708 39.1338 119.005 38.8053 119.202 38.3757C119.399 37.9436 119.497 37.4169 119.497 36.7956C119.497 36.1794 119.399 35.6565 119.202 35.227C119.008 34.7974 118.717 34.4714 118.331 34.249C117.945 34.0266 117.466 33.9153 116.893 33.9153H115.528V39.6989ZM127.729 40.8456C127.202 40.8456 126.748 40.7497 126.367 40.558C125.989 40.3662 125.697 40.1054 125.493 39.7756C125.288 39.4432 125.186 39.0673 125.186 38.648C125.186 38.3284 125.252 38.0446 125.385 37.7966C125.518 37.546 125.704 37.3146 125.942 37.1024C126.179 36.8902 126.454 36.6767 126.766 36.4619L128.032 35.5683C128.247 35.4277 128.414 35.2794 128.534 35.1234C128.654 34.9649 128.714 34.7693 128.714 34.5366C128.714 34.3526 128.635 34.1761 128.477 34.0074C128.318 33.8386 128.106 33.7543 127.84 33.7543C127.656 33.7543 127.494 33.799 127.353 33.8885C127.215 33.978 127.106 34.093 127.027 34.2337C126.95 34.3717 126.912 34.5175 126.912 34.6709C126.912 34.8499 126.96 35.0301 127.058 35.2116C127.157 35.3932 127.285 35.5811 127.441 35.7754C127.597 35.9672 127.761 36.1666 127.932 36.3737L131.579 40.7344H130.283L127.265 37.1868C127.012 36.8876 126.776 36.6064 126.559 36.343C126.342 36.0771 126.165 35.8087 126.03 35.5376C125.897 35.2641 125.83 34.9687 125.83 34.6517C125.83 34.2912 125.912 33.9716 126.076 33.6929C126.242 33.4116 126.473 33.1918 126.77 33.0332C127.067 32.8747 127.414 32.7955 127.813 32.7955C128.217 32.7955 128.564 32.8747 128.852 33.0332C129.144 33.1892 129.368 33.3976 129.524 33.6584C129.682 33.9166 129.761 34.1991 129.761 34.506C129.761 34.8793 129.668 35.2091 129.481 35.4955C129.297 35.7793 129.043 36.0401 128.718 36.2778L127.142 37.4399C126.835 37.6649 126.622 37.8874 126.501 38.1072C126.384 38.3246 126.325 38.4946 126.325 38.6173C126.325 38.8423 126.383 39.0507 126.498 39.2425C126.615 39.4342 126.779 39.5876 126.989 39.7027C127.201 39.8178 127.449 39.8753 127.733 39.8753C128.024 39.8753 128.308 39.8126 128.584 39.6874C128.863 39.5595 129.115 39.3767 129.34 39.1389C129.567 38.9011 129.747 38.6161 129.88 38.2837C130.013 37.9513 130.08 37.5793 130.08 37.1676H131.115C131.115 37.6739 131.058 38.1021 130.943 38.4524C130.828 38.8001 130.688 39.0839 130.525 39.3038C130.364 39.5212 130.211 39.6912 130.068 39.8139C130.022 39.8548 129.979 39.8957 129.938 39.9366C129.897 39.9776 129.853 40.0185 129.807 40.0594C129.542 40.3278 129.219 40.526 128.841 40.6538C128.465 40.7817 128.094 40.8456 127.729 40.8456ZM135.968 32.8798H137.406L139.907 38.9855H139.999L142.499 32.8798H143.938V40.7344H142.81V35.0506H142.737L140.421 40.7229H139.485L137.168 35.0467H137.096V40.7344H135.968V32.8798ZM146.594 40.7344H145.336L148.163 32.8798H149.532L152.358 40.7344H151.1L148.88 34.3065H148.818L146.594 40.7344ZM146.805 37.6585H150.886V38.6557H146.805V37.6585ZM153.763 40.7344V32.8798H156.562C157.171 32.8798 157.676 32.9847 158.077 33.1943C158.481 33.404 158.783 33.6942 158.982 34.0649C159.182 34.4331 159.282 34.8588 159.282 35.342C159.282 35.8227 159.181 36.2459 158.979 36.6115C158.779 36.9746 158.477 37.2571 158.073 37.4591C157.672 37.6611 157.167 37.7621 156.559 37.7621H154.438V36.7419H156.451C156.835 36.7419 157.147 36.6869 157.387 36.577C157.63 36.467 157.808 36.3072 157.92 36.0976C158.033 35.8879 158.089 35.6361 158.089 35.342C158.089 35.0455 158.031 34.7885 157.916 34.5712C157.804 34.3538 157.626 34.1876 157.383 34.0726C157.143 33.955 156.827 33.8962 156.436 33.8962H154.948V40.7344H153.763ZM157.64 37.1906L159.581 40.7344H158.231L156.328 37.1906H157.64ZM160.606 33.9V32.8798H166.685V33.9H164.234V40.7344H163.053V33.9H160.606Z" fill="#FAFAFA"/>
<path d="M6.05793 12.8281C3.26224 15.8437 1.40695 19.6093 0.719407 23.6635C0.0318635 27.7177 0.541931 31.8844 2.18711 35.6531C3.83228 39.4217 6.5411 42.6286 9.98163 44.8807C13.4222 47.1329 17.4449 48.3324 21.557 48.3324C25.6691 48.3324 29.6919 47.1329 33.1325 44.8807C36.573 42.6286 39.2818 39.4217 40.927 35.6531C42.5722 31.8844 43.0822 27.7177 42.3947 23.6635C41.7071 19.6093 39.8519 15.8437 37.0562 12.8281" stroke="#8B3A18" stroke-width="0.845406"/>
<path d="M8.03088 14.8047C5.63578 17.4277 4.05498 20.6905 3.48099 24.1959C2.907 27.7012 3.36456 31.2978 4.79797 34.5477C6.23139 37.7977 8.5788 40.5607 11.5544 42.5005C14.53 44.4402 18.0054 45.473 21.5574 45.473C25.1094 45.473 28.5848 44.4402 31.5604 42.5005C34.536 40.5607 36.8834 37.7977 38.3168 34.5477C39.7502 31.2978 40.2078 27.7012 39.6338 24.1959C39.0598 20.6905 37.479 17.4277 35.0839 14.8047" stroke="#8B3A18" stroke-width="0.422703"/>
<path d="M3.24023 15.8351L10.2853 8.79L14.5123 12.4534L21.5574 0.335938L28.6024 12.4534L32.8295 8.79L39.8745 15.8351H21.5574H3.24023Z" fill="#1E4D6B" stroke="#1E4D6B" stroke-width="0.281802" stroke-linejoin="round"/>
<path d="M21.5571 0.335938L25.7841 8.79L23.8115 7.38099L21.5571 10.199L19.3027 7.38099L17.3301 8.79L21.5571 0.335938Z" fill="white"/>
<path d="M10.2857 8.78906L12.5401 11.6071L11.4129 10.7617L10.2857 12.4525L9.15846 10.7617L8.03125 11.6071L10.2857 8.78906Z" fill="white"/>
<path d="M32.8286 8.78906L35.0831 11.6071L33.9558 10.7617L32.8286 12.4525L31.7014 10.7617L30.5742 11.6071L32.8286 8.78906Z" fill="white"/>
<path d="M20.9922 15.5407H22.1194L21.5558 14.6953L20.9922 15.5407Z" fill="#8B3A18"/>
<path d="M21.5564 15.5391L31.4195 21.1751H11.6934L21.5564 15.5391Z" fill="#8B3A18"/>
<path d="M8.875 25.404H34.2372L30.0102 22.5859H13.102L8.875 25.404Z" fill="#8B3A18"/>
<path d="M18.1743 25.4062H15.9199V26.8153H18.1743V25.4062Z" fill="#8B3A18"/>
<path d="M27.1919 25.4062H24.9375V26.8153H27.1919V25.4062Z" fill="#8B3A18"/>
<path d="M11.337 32.5547H11.0552C10.8996 32.5547 10.7734 32.6809 10.7734 32.8365V36.4999C10.7734 36.6556 10.8996 36.7817 11.0552 36.7817H11.337C11.4927 36.7817 11.6188 36.6556 11.6188 36.4999V32.8365C11.6188 32.6809 11.4927 32.5547 11.337 32.5547Z" fill="#8B3A18"/>
<path d="M11.1967 33.3995C12.1305 33.3995 12.8875 32.3901 12.8875 31.145C12.8875 29.9 12.1305 28.8906 11.1967 28.8906C10.2629 28.8906 9.50586 29.9 9.50586 31.145C9.50586 32.3901 10.2629 33.3995 11.1967 33.3995Z" fill="#8B3A18"/>
<path d="M14.5781 34.5234H20.2142C20.2142 36.7779 14.5781 36.7779 14.5781 34.5234Z" fill="#8B3A18"/>
<path d="M23.7355 32.5547H23.4537C23.298 32.5547 23.1719 32.6809 23.1719 32.8365V36.4999C23.1719 36.6556 23.298 36.7817 23.4537 36.7817H23.7355C23.8911 36.7817 24.0173 36.6556 24.0173 36.4999V32.8365C24.0173 32.6809 23.8911 32.5547 23.7355 32.5547Z" fill="#8B3A18"/>
<path d="M21.9043 29.1719L22.1861 33.1171H25.0041L25.2859 29.1719H21.9043Z" fill="#8B3A18"/>
<path d="M23.3131 29.1719H23.0312V31.9899H23.3131V29.1719Z" fill="white"/>
<path d="M24.1588 29.1719H23.877V31.9899H24.1588V29.1719Z" fill="white"/>
<path d="M28.1055 31.1406H33.7415L33.1779 35.6495H28.6691L28.1055 31.1406Z" stroke="#8B3A18" stroke-width="0.563604"/>
<path d="M28.3867 32.5496H33.4592H28.3867ZM28.6685 34.2404H33.1774H28.6685ZM30.9229 31.1406V35.6495V31.1406ZM29.5139 31.1406L29.7957 35.6495L29.5139 31.1406ZM32.3319 31.1406L32.0501 35.6495L32.3319 31.1406Z" fill="black"/>
<path d="M28.3867 32.5496H33.4592M28.6685 34.2404H33.1774M30.9229 31.1406V35.6495M29.5139 31.1406L29.7957 35.6495M32.3319 31.1406L32.0501 35.6495" stroke="#8B3A18" stroke-width="0.422703"/>
<path d="M28.6699 31.1445L30.9243 29.1719L33.1788 31.1445" stroke="#8B3A18" stroke-width="0.563604"/>
<path d="M12.6683 39.1349H13.4884V40.0636H14.3846V39.1349H15.2084V41.7891H14.3846V40.7154H13.4884V41.7891H12.6683V39.1349ZM17.3138 39.1349H18.1321V40.7172C18.1321 40.8742 18.1074 41.0226 18.0579 41.1626C18.0096 41.3014 17.9329 41.4233 17.8279 41.5283C17.7241 41.6322 17.6149 41.7052 17.5002 41.7474C17.3409 41.8066 17.1496 41.8361 16.9263 41.8361C16.7972 41.8361 16.6559 41.8271 16.5026 41.809C16.3506 41.7909 16.2232 41.7553 16.1206 41.7022C16.018 41.6478 15.9239 41.5712 15.8382 41.4722C15.7537 41.3732 15.6958 41.2713 15.6644 41.1662C15.6137 40.9973 15.5883 40.8476 15.5883 40.7172V39.1349H16.4067V40.7553C16.4067 40.9001 16.4465 41.0136 16.5262 41.0956C16.6071 41.1765 16.7187 41.2169 16.8611 41.2169C17.0023 41.2169 17.1128 41.1771 17.1925 41.0974C17.2733 41.0166 17.3138 40.9025 17.3138 40.7553V39.1349ZM18.5102 39.1349H20.0455C20.3014 39.1349 20.4975 39.1982 20.6339 39.325C20.7715 39.4517 20.8403 39.6086 20.8403 39.7957C20.8403 39.9526 20.7915 40.0872 20.6937 40.1994C20.6285 40.2743 20.5332 40.3334 20.4076 40.3769C20.5983 40.4227 20.7383 40.5018 20.8277 40.614C20.9182 40.7251 20.9635 40.8651 20.9635 41.0341C20.9635 41.1717 20.9315 41.2954 20.8675 41.4052C20.8035 41.5151 20.716 41.602 20.605 41.6659C20.5362 41.7058 20.4324 41.7347 20.2936 41.7529C20.1089 41.777 19.9864 41.7891 19.926 41.7891H18.5102V39.1349ZM19.3376 40.1759H19.6943C19.8222 40.1759 19.9109 40.1542 19.9604 40.1107C20.0111 40.0661 20.0365 40.0021 20.0365 39.9188C20.0365 39.8416 20.0111 39.7812 19.9604 39.7378C19.9109 39.6943 19.824 39.6726 19.6997 39.6726H19.3376V40.1759ZM19.3376 41.2188H19.7558C19.8971 41.2188 19.9966 41.194 20.0546 41.1445C20.1125 41.0938 20.1415 41.0262 20.1415 40.9417C20.1415 40.8633 20.1125 40.8005 20.0546 40.7535C19.9978 40.7052 19.8977 40.681 19.754 40.681H19.3376V41.2188ZM21.2329 39.1349H21.9988L22.9982 40.6032V39.1349H23.7713V41.7891H22.9982L22.0042 40.3316V41.7891H21.2329V39.1349ZM24.1476 39.1349H26.3455V39.7015H24.9695V40.1234H26.2459V40.6647H24.9695V41.188H26.3853V41.7891H24.1476V39.1349ZM26.6584 39.1349H28.0218C28.3187 39.1349 28.5408 39.2055 28.688 39.3467C28.8365 39.4879 28.9107 39.6889 28.9107 39.9496C28.9107 40.2175 28.8298 40.427 28.6681 40.5778C28.5076 40.7287 28.262 40.8041 27.9312 40.8041H27.4822V41.7891H26.6584V39.1349ZM27.4822 40.2664H27.6832C27.8413 40.2664 27.9524 40.2393 28.0163 40.185C28.0803 40.1294 28.1123 40.0588 28.1123 39.9731C28.1123 39.8898 28.0845 39.8192 28.029 39.7613C27.9735 39.7034 27.8691 39.6744 27.7158 39.6744H27.4822V40.2664ZM30.4928 41.3509H29.5586L29.43 41.7891H28.5918L29.5894 39.1349H30.4838L31.4814 41.7891H30.6232L30.4928 41.3509ZM30.3208 40.777L30.0275 39.8228L29.736 40.777H30.3208Z" fill="url(#paint0_linear_305_2700)"/>
<defs>
<linearGradient id="paint0_linear_305_2700" x1="11.9336" y1="40.2891" x2="31.9336" y2="40.2891" gradientUnits="userSpaceOnUse">
<stop stop-color="#1E4D6B"/>
<stop offset="0.5" stop-color="#1E2939"/>
<stop offset="1" stop-color="#8B3A18"/>
</linearGradient>
</defs>
</svg>
