<svg width="192" height="85" viewBox="0 0 192 85" fill="none" xmlns="http://www.w3.org/2000/svg">
<g clip-path="url(#clip0_305_2636)">
<path d="M34.4724 33.1641C30.7697 36.1791 28.3125 39.9441 27.4019 43.9976C26.4913 48.0511 27.1668 52.2172 29.3458 55.9852C31.5247 59.7532 35.1124 62.9595 39.6691 65.2113C44.2259 67.463 49.5539 68.6624 55.0001 68.6624C60.4463 68.6624 65.7743 67.463 70.331 65.2113C74.8878 62.9595 78.4754 59.7532 80.6544 55.9852C82.8334 52.2172 83.509 48.0511 82.5983 43.9976C81.6877 39.9441 79.2305 36.1791 75.5277 33.1641" stroke="#EA580C" stroke-width="0.972848"/>
</g>
<g clip-path="url(#clip1_305_2636)">
<path d="M37.0746 35.1328C33.9009 37.7557 31.8062 41.0184 31.0456 44.5236C30.285 48.0287 30.8913 51.6252 32.7907 54.875C34.6901 58.1248 37.8007 60.8878 41.7436 62.8274C45.6866 64.7671 50.2918 65.7997 54.9986 65.7997C59.7053 65.7997 64.3106 64.7671 68.2535 62.8274C72.1965 60.8878 75.307 58.1248 77.2064 54.875C79.1058 51.6252 79.7122 48.0287 78.9516 44.5236C78.191 41.0184 76.0963 37.7557 72.9225 35.1328" stroke="#EA580C" stroke-width="0.486575"/>
</g>
<g clip-path="url(#clip2_305_2636)">
<path d="M30.7402 36.1611L40.0715 29.1205L45.6703 32.7816L55.0015 20.6719L64.3328 32.7816L69.9315 29.1205L79.2628 36.1611H55.0015H30.7402Z" fill="#059669" stroke="#059669" stroke-width="0.324215" stroke-linejoin="round"/>
<path d="M55.0011 20.6719L60.5999 29.1206L57.987 27.7124L55.0011 30.5287L52.0151 27.7124L49.4023 29.1206L55.0011 20.6719Z" fill="white"/>
<path d="M40.0719 29.1211L43.0579 31.9374L41.5649 31.0925L40.0719 32.7822L38.5789 31.0925L37.0859 31.9374L40.0719 29.1211Z" fill="white"/>
<path d="M69.9314 29.1211L72.9174 31.9374L71.4244 31.0925L69.9314 32.7822L68.4384 31.0925L66.9453 31.9374L69.9314 29.1211Z" fill="white"/>
</g>
<g clip-path="url(#clip3_305_2636)">
<path d="M54.252 35.8694H55.7455L54.9987 35.0234L54.252 35.8694Z" fill="#EA580C"/>
<path d="M54.9998 35.8711L68.0681 41.5106H41.9316L54.9998 35.8711Z" fill="#EA580C"/>
<path d="M38.1973 45.7377H71.8013L66.2006 42.918H43.7979L38.1973 45.7377Z" fill="#EA580C"/>
<path d="M50.5183 45.7383H47.5312V47.1482H50.5183V45.7383Z" fill="#EA580C"/>
<path d="M62.4675 45.7383H59.4805V47.1482H62.4675V45.7383Z" fill="#EA580C"/>
</g>
<g clip-path="url(#clip4_305_2636)">
<path d="M41.4631 52.8828H41.089C40.8824 52.8828 40.7148 53.0091 40.7148 53.1648V56.8308C40.7148 56.9866 40.8824 57.1128 41.089 57.1128H41.4631C41.6697 57.1128 41.8372 56.9866 41.8372 56.8308V53.1648C41.8372 53.0091 41.6697 52.8828 41.4631 52.8828Z" fill="#EA580C"/>
<path d="M41.276 53.7307C42.5158 53.7307 43.5208 52.7207 43.5208 51.4748C43.5208 50.2288 42.5158 49.2188 41.276 49.2188C40.0363 49.2188 39.0312 50.2288 39.0312 51.4748C39.0312 52.7207 40.0363 53.7307 41.276 53.7307Z" fill="#EA580C"/>
</g>
<g clip-path="url(#clip5_305_2636)">
<path d="M45.75 54.8555H53.2292C53.2292 57.1193 45.75 57.1193 45.75 54.8555Z" fill="#EA580C"/>
</g>
<g clip-path="url(#clip6_305_2636)">
<path d="M57.8908 52.8906H57.5167C57.3101 52.8906 57.1426 53.0171 57.1426 53.173V56.8443C57.1426 57.0003 57.3101 57.1267 57.5167 57.1267H57.8908C58.0975 57.1267 58.265 57.0003 58.265 56.8443V53.173C58.265 53.0171 58.0975 52.8906 57.8908 52.8906Z" fill="#EA580C"/>
<path d="M55.459 49.5L55.8331 53.4537H59.5744L59.9486 49.5H55.459Z" fill="#EA580C"/>
<path d="M57.3292 49.5H56.9551V52.3241H57.3292V49.5Z" fill="white"/>
<path d="M58.4523 49.5H58.0781V52.3241H58.4523V49.5Z" fill="white"/>
</g>
<g clip-path="url(#clip7_305_2636)">
<path d="M63.6738 51.4766H71.1405L70.3939 55.9972H64.4205L63.6738 51.4766Z" stroke="#EA580C" stroke-width="0.649557"/>
<path d="M65.6569 52.8893H67.4069H69.1569L69.0169 54.5845H67.4069H65.7969L65.6569 52.8893Z" fill="black"/>
<path d="M64.0469 52.8893H70.7669M64.4202 54.5845H70.3936M67.4069 51.4766V55.9972M65.5402 51.4766L65.9135 55.9972M69.2736 51.4766L68.9002 55.9972" stroke="#EA580C" stroke-width="0.487168"/>
<path d="M64.4199 51.4778L67.4066 49.5L70.3933 51.4778" stroke="#EA580C" stroke-width="0.649557"/>
</g>
<rect width="53" height="5" transform="translate(30 72)" fill="url(#paint0_linear_305_2636)"/>
<rect width="53" height="5" transform="translate(30 72)" fill="url(#paint1_linear_305_2636)"/>
<g filter="url(#filter0_d_305_2636)">
<path d="M47.2346 73.3457H48.0548V74.2745H48.951V73.3457H49.7748V76H48.951V74.9263H48.0548V76H47.2346V73.3457ZM51.8801 73.3457H52.6985V74.9282C52.6985 75.0851 52.6738 75.2335 52.6243 75.3736C52.576 75.5124 52.4994 75.6343 52.3943 75.7393C52.2905 75.8431 52.1813 75.9161 52.0666 75.9584C51.9073 76.0175 51.716 76.0471 51.4927 76.0471C51.3635 76.0471 51.2223 76.038 51.069 76.0199C50.9169 76.0018 50.7896 75.9662 50.687 75.9131C50.5844 75.8588 50.4902 75.7821 50.4045 75.6832C50.3201 75.5842 50.2621 75.4822 50.2307 75.3772C50.18 75.2082 50.1547 75.0585 50.1547 74.9282V73.3457H50.9731V74.9662C50.9731 75.111 51.0129 75.2245 51.0926 75.3066C51.1734 75.3874 51.2851 75.4279 51.4275 75.4279C51.5687 75.4279 51.6792 75.388 51.7588 75.3084C51.8397 75.2275 51.8801 75.1134 51.8801 74.9662V73.3457ZM53.0766 73.3457H54.6119C54.8678 73.3457 55.064 73.4091 55.2004 73.5358C55.338 73.6626 55.4068 73.8195 55.4068 74.0066C55.4068 74.1635 55.3579 74.2981 55.2601 74.4103C55.1949 74.4852 55.0996 74.5443 54.974 74.5878C55.1648 74.6336 55.3048 74.7127 55.3941 74.825C55.4846 74.936 55.5299 75.076 55.5299 75.245C55.5299 75.3826 55.4979 75.5063 55.4339 75.6162C55.3699 75.726 55.2824 75.8129 55.1714 75.8769C55.1026 75.9167 54.9988 75.9457 54.86 75.9638C54.6753 75.9879 54.5528 76 54.4924 76H53.0766V73.3457ZM53.904 74.3868H54.2607C54.3886 74.3868 54.4773 74.3651 54.5268 74.3216C54.5775 74.277 54.6029 74.213 54.6029 74.1297C54.6029 74.0525 54.5775 73.9921 54.5268 73.9487C54.4773 73.9052 54.3904 73.8835 54.2661 73.8835H53.904V74.3868ZM53.904 75.4297H54.3222C54.4635 75.4297 54.563 75.4049 54.621 75.3554C54.6789 75.3048 54.7079 75.2372 54.7079 75.1527C54.7079 75.0742 54.6789 75.0114 54.621 74.9644C54.5643 74.9161 54.4641 74.8919 54.3204 74.8919H53.904V75.4297ZM55.7993 73.3457H56.5652L57.5646 74.8141V73.3457H58.3377V76H57.5646L56.5706 74.5425V76H55.7993V73.3457ZM58.714 73.3457H60.912V73.9124H59.536V74.3343H60.8124V74.8757H59.536V75.3989H60.9518V76H58.714V73.3457ZM61.2249 73.3457H62.5882C62.8851 73.3457 63.1072 73.4163 63.2545 73.5576C63.403 73.6988 63.4772 73.8998 63.4772 74.1605C63.4772 74.4284 63.3963 74.6379 63.2346 74.7887C63.074 74.9396 62.8284 75.0151 62.4977 75.0151H62.0487V76H61.2249V73.3457ZM62.0487 74.4773H62.2496C62.4078 74.4773 62.5188 74.4502 62.5828 74.3959C62.6468 74.3403 62.6787 74.2697 62.6787 74.184C62.6787 74.1007 62.651 74.0301 62.5955 73.9722C62.5399 73.9143 62.4355 73.8853 62.2822 73.8853H62.0487V74.4773ZM65.0593 75.5618H64.125L63.9965 76H63.1582L64.1558 73.3457H65.0502L66.0478 76H65.1896L65.0593 75.5618ZM64.8873 74.9879L64.594 74.0337L64.3025 74.9879H64.8873Z" fill="white"/>
</g>
<path d="M93.2912 51.168V38.0771H98.2003C99.206 38.0771 100.05 38.2518 100.732 38.6012C101.418 38.9506 101.935 39.4407 102.285 40.0714C102.638 40.6978 102.815 41.4286 102.815 42.2638C102.815 43.1033 102.636 43.832 102.278 44.4499C101.925 45.0636 101.403 45.5387 100.712 45.8754C100.022 46.2077 99.174 46.3739 98.1683 46.3739H94.6719V44.4052H97.8487C98.4368 44.4052 98.9183 44.3242 99.2933 44.1623C99.6683 43.9961 99.9453 43.7553 100.124 43.44C100.308 43.1204 100.399 42.7283 100.399 42.2638C100.399 41.7994 100.308 41.4031 100.124 41.0749C99.9411 40.7425 99.6619 40.4911 99.2869 40.3207C98.9119 40.146 98.4283 40.0586 97.8359 40.0586H95.6626V51.168H93.2912ZM100.054 45.2362L103.295 51.168H100.648L97.4652 45.2362H100.054ZM108.652 51.3597C107.668 51.3597 106.817 51.1552 106.101 50.7461C105.39 50.3327 104.842 49.7489 104.459 48.9947C104.075 48.2362 103.883 47.3434 103.883 46.3164C103.883 45.3065 104.075 44.4201 104.459 43.6573C104.847 42.8903 105.388 42.2937 106.082 41.8675C106.777 41.4371 107.593 41.2219 108.53 41.2219C109.136 41.2219 109.707 41.32 110.244 41.516C110.785 41.7077 111.262 42.006 111.675 42.4109C112.093 42.8157 112.421 43.3313 112.66 43.9577C112.898 44.5799 113.018 45.3214 113.018 46.1822V46.8917H104.97V45.332H110.8C110.795 44.8888 110.7 44.4947 110.512 44.1495C110.325 43.8001 110.062 43.5252 109.726 43.3249C109.393 43.1246 109.006 43.0245 108.562 43.0245C108.089 43.0245 107.674 43.1396 107.316 43.3697C106.958 43.5955 106.679 43.8938 106.479 44.2646C106.283 44.631 106.182 45.0337 106.178 45.4727V46.8342C106.178 47.4052 106.283 47.8952 106.491 48.3043C106.7 48.7092 106.992 49.0202 107.367 49.2376C107.742 49.4506 108.181 49.5572 108.684 49.5572C109.021 49.5572 109.325 49.5103 109.598 49.4165C109.871 49.3185 110.107 49.1758 110.307 48.9883C110.508 48.8008 110.659 48.5685 110.761 48.2915L112.922 48.5344C112.785 49.1055 112.525 49.604 112.142 50.0302C111.763 50.4521 111.277 50.7802 110.685 51.0146C110.092 51.2447 109.415 51.3597 108.652 51.3597ZM122.285 43.945L120.176 44.1751C120.116 43.962 120.012 43.7617 119.863 43.5742C119.718 43.3867 119.522 43.2354 119.275 43.1204C119.027 43.0053 118.725 42.9478 118.367 42.9478C117.885 42.9478 117.481 43.0522 117.152 43.261C116.829 43.4698 116.669 43.7404 116.673 44.0728C116.669 44.3583 116.773 44.5906 116.986 44.7695C117.204 44.9485 117.561 45.0955 118.06 45.2106L119.735 45.5685C120.664 45.7688 121.354 46.0863 121.806 46.521C122.262 46.9556 122.492 47.5245 122.496 48.2276C122.492 48.8455 122.311 49.391 121.953 49.864C121.599 50.3327 121.107 50.6992 120.476 50.9634C119.846 51.2276 119.121 51.3597 118.303 51.3597C117.101 51.3597 116.134 51.1083 115.401 50.6055C114.668 50.0984 114.231 49.3931 114.091 48.4897L116.347 48.2724C116.449 48.7156 116.667 49.0501 116.999 49.2759C117.331 49.5018 117.764 49.6147 118.297 49.6147C118.846 49.6147 119.287 49.5018 119.62 49.2759C119.956 49.0501 120.125 48.771 120.125 48.4386C120.125 48.1573 120.016 47.9251 119.799 47.7418C119.586 47.5586 119.253 47.418 118.802 47.32L117.127 46.9684C116.185 46.7724 115.488 46.4421 115.037 45.9776C114.585 45.5089 114.361 44.9165 114.365 44.2006C114.361 43.5955 114.525 43.0714 114.858 42.6282C115.194 42.1808 115.661 41.8356 116.257 41.5927C116.858 41.3455 117.551 41.2219 118.335 41.2219C119.485 41.2219 120.391 41.467 121.052 41.957C121.716 42.4471 122.128 43.1097 122.285 43.945ZM128.857 41.3498V43.1396H123.213V41.3498H128.857ZM124.606 38.9975H126.92V48.2148C126.92 48.5259 126.967 48.7646 127.061 48.9308C127.159 49.0927 127.287 49.2035 127.444 49.2631C127.602 49.3228 127.777 49.3526 127.968 49.3526C128.113 49.3526 128.245 49.342 128.365 49.3207C128.488 49.2994 128.582 49.2802 128.646 49.2631L129.036 51.0721C128.912 51.1147 128.735 51.1616 128.505 51.2127C128.279 51.2638 128.002 51.2937 127.674 51.3022C127.095 51.3192 126.573 51.2319 126.108 51.0401C125.644 50.8441 125.275 50.5415 125.002 50.1325C124.734 49.7234 124.602 49.212 124.606 48.5984V38.9975ZM133.167 51.3661C132.545 51.3661 131.985 51.2553 131.486 51.0337C130.992 50.8079 130.6 50.4755 130.31 50.0366C130.025 49.5977 129.882 49.0565 129.882 48.413C129.882 47.859 129.984 47.4009 130.189 47.0387C130.393 46.6765 130.672 46.3867 131.026 46.1694C131.38 45.9521 131.778 45.788 132.221 45.6772C132.669 45.5621 133.131 45.479 133.608 45.4279C134.184 45.3683 134.65 45.315 135.008 45.2681C135.366 45.217 135.626 45.1403 135.788 45.038C135.954 44.9315 136.037 44.7674 136.037 44.5458V44.5075C136.037 44.0259 135.895 43.6531 135.609 43.3888C135.324 43.1246 134.912 42.9925 134.375 42.9925C133.809 42.9925 133.359 43.1161 133.027 43.3633C132.699 43.6104 132.477 43.9023 132.362 44.239L130.201 43.9322C130.372 43.3356 130.653 42.837 131.045 42.4364C131.437 42.0316 131.917 41.729 132.483 41.5288C133.05 41.3242 133.677 41.2219 134.363 41.2219C134.836 41.2219 135.307 41.2773 135.775 41.3881C136.244 41.4989 136.672 41.6822 137.06 41.9379C137.448 42.1893 137.759 42.5323 137.993 42.967C138.232 43.4016 138.351 43.945 138.351 44.5969V51.168H136.127V49.8192H136.05C135.91 50.092 135.711 50.3477 135.456 50.5863C135.204 50.8207 134.887 51.0103 134.503 51.1552C134.124 51.2958 133.679 51.3661 133.167 51.3661ZM133.768 49.6658C134.233 49.6658 134.635 49.5742 134.976 49.391C135.317 49.2035 135.579 48.9563 135.763 48.6495C135.95 48.3427 136.044 48.0082 136.044 47.646V46.489C135.971 46.5487 135.848 46.604 135.673 46.6552C135.503 46.7063 135.311 46.7511 135.098 46.7894C134.885 46.8278 134.674 46.8619 134.465 46.8917C134.256 46.9215 134.075 46.9471 133.922 46.9684C133.576 47.0153 133.267 47.092 132.995 47.1985C132.722 47.305 132.507 47.4542 132.349 47.646C132.191 47.8335 132.113 48.0763 132.113 48.3746C132.113 48.8008 132.268 49.1225 132.579 49.3398C132.89 49.5572 133.287 49.6658 133.768 49.6658ZM146.486 47.0387V41.3498H148.8V51.168H146.556V49.4229H146.454C146.232 49.9727 145.868 50.4222 145.361 50.7717C144.858 51.1211 144.238 51.2958 143.501 51.2958C142.857 51.2958 142.288 51.1531 141.794 50.8675C141.304 50.5778 140.92 50.158 140.643 49.6083C140.366 49.0543 140.228 48.3853 140.228 47.6012V41.3498H142.542V47.2433C142.542 47.8654 142.712 48.3597 143.053 48.7262C143.394 49.0927 143.842 49.2759 144.396 49.2759C144.737 49.2759 145.067 49.1928 145.386 49.0266C145.706 48.8604 145.968 48.6133 146.173 48.2852C146.381 47.9528 146.486 47.5373 146.486 47.0387ZM150.729 51.168V41.3498H152.973V42.9862H153.075C153.254 42.4194 153.561 41.9826 153.995 41.6758C154.434 41.3647 154.935 41.2092 155.498 41.2092C155.625 41.2092 155.768 41.2156 155.926 41.2283C156.088 41.2369 156.222 41.2518 156.329 41.2731V43.4016C156.231 43.3675 156.075 43.3377 155.862 43.3121C155.653 43.2823 155.451 43.2674 155.255 43.2674C154.833 43.2674 154.454 43.359 154.117 43.5423C153.785 43.7212 153.522 43.9705 153.331 44.2901C153.139 44.6097 153.043 44.9783 153.043 45.396V51.168H150.729ZM160.065 51.3661C159.443 51.3661 158.883 51.2553 158.384 51.0337C157.89 50.8079 157.498 50.4755 157.208 50.0366C156.923 49.5977 156.78 49.0565 156.78 48.413C156.78 47.859 156.882 47.4009 157.087 47.0387C157.291 46.6765 157.57 46.3867 157.924 46.1694C158.278 45.9521 158.676 45.788 159.119 45.6772C159.567 45.5621 160.029 45.479 160.506 45.4279C161.082 45.3683 161.548 45.315 161.906 45.2681C162.264 45.217 162.524 45.1403 162.686 45.038C162.852 44.9315 162.935 44.7674 162.935 44.5458V44.5075C162.935 44.0259 162.793 43.6531 162.507 43.3888C162.222 43.1246 161.81 42.9925 161.273 42.9925C160.707 42.9925 160.257 43.1161 159.925 43.3633C159.597 43.6104 159.375 43.9023 159.26 44.239L157.099 43.9322C157.27 43.3356 157.551 42.837 157.943 42.4364C158.335 42.0316 158.815 41.729 159.381 41.5288C159.948 41.3242 160.575 41.2219 161.261 41.2219C161.734 41.2219 162.205 41.2773 162.673 41.3881C163.142 41.4989 163.57 41.6822 163.958 41.9379C164.346 42.1893 164.657 42.5323 164.891 42.967C165.13 43.4016 165.249 43.945 165.249 44.5969V51.168H163.025V49.8192H162.948C162.808 50.092 162.609 50.3477 162.354 50.5863C162.102 50.8207 161.785 51.0103 161.401 51.1552C161.022 51.2958 160.577 51.3661 160.065 51.3661ZM160.666 49.6658C161.131 49.6658 161.533 49.5742 161.874 49.391C162.215 49.2035 162.477 48.9563 162.661 48.6495C162.848 48.3427 162.942 48.0082 162.942 47.646V46.489C162.869 46.5487 162.746 46.604 162.571 46.6552C162.401 46.7063 162.209 46.7511 161.996 46.7894C161.783 46.8278 161.572 46.8619 161.363 46.8917C161.154 46.9215 160.973 46.9471 160.82 46.9684C160.474 47.0153 160.166 47.092 159.893 47.1985C159.62 47.305 159.405 47.4542 159.247 47.646C159.09 47.8335 159.011 48.0763 159.011 48.3746C159.011 48.8008 159.166 49.1225 159.477 49.3398C159.788 49.5572 160.185 49.6658 160.666 49.6658ZM169.44 45.4151V51.168H167.126V41.3498H169.338V43.0181H169.453C169.679 42.4684 170.039 42.0316 170.533 41.7077C171.032 41.3839 171.647 41.2219 172.38 41.2219C173.058 41.2219 173.648 41.3668 174.151 41.6566C174.658 41.9464 175.05 42.3661 175.327 42.9158C175.608 43.4656 175.747 44.1325 175.743 44.9165V51.168H173.429V45.2745C173.429 44.6183 173.258 44.1048 172.917 43.734C172.581 43.3633 172.114 43.1779 171.517 43.1779C171.113 43.1779 170.752 43.2674 170.437 43.4464C170.126 43.6211 169.881 43.8746 169.702 44.207C169.527 44.5394 169.44 44.9421 169.44 45.4151ZM182.547 41.3498V43.1396H176.903V41.3498H182.547ZM178.297 38.9975H180.611V48.2148C180.611 48.5259 180.658 48.7646 180.751 48.9308C180.849 49.0927 180.977 49.2035 181.135 49.2631C181.293 49.3228 181.467 49.3526 181.659 49.3526C181.804 49.3526 181.936 49.342 182.055 49.3207C182.179 49.2994 182.273 49.2802 182.337 49.2631L182.726 51.0721C182.603 51.1147 182.426 51.1616 182.196 51.2127C181.97 51.2638 181.693 51.2937 181.365 51.3022C180.785 51.3192 180.263 51.2319 179.799 51.0401C179.334 50.8441 178.966 50.5415 178.693 50.1325C178.425 49.7234 178.293 49.212 178.297 48.5984V38.9975ZM191.652 43.945L189.543 44.1751C189.483 43.962 189.379 43.7617 189.229 43.5742C189.085 43.3867 188.888 43.2354 188.641 43.1204C188.394 43.0053 188.092 42.9478 187.734 42.9478C187.252 42.9478 186.847 43.0522 186.519 43.261C186.195 43.4698 186.036 43.7404 186.04 44.0728C186.036 44.3583 186.14 44.5906 186.353 44.7695C186.57 44.9485 186.928 45.0955 187.427 45.2106L189.102 45.5685C190.031 45.7688 190.721 46.0863 191.173 46.521C191.629 46.9556 191.859 47.5245 191.863 48.2276C191.859 48.8455 191.678 49.391 191.32 49.864C190.966 50.3327 190.474 50.6992 189.843 50.9634C189.212 51.2276 188.488 51.3597 187.67 51.3597C186.468 51.3597 185.501 51.1083 184.768 50.6055C184.035 50.0984 183.598 49.3931 183.457 48.4897L185.714 48.2724C185.816 48.7156 186.033 49.0501 186.366 49.2759C186.698 49.5018 187.131 49.6147 187.663 49.6147C188.213 49.6147 188.654 49.5018 188.987 49.2759C189.323 49.0501 189.491 48.771 189.491 48.4386C189.491 48.1573 189.383 47.9251 189.165 47.7418C188.952 47.5586 188.62 47.418 188.168 47.32L186.494 46.9684C185.552 46.7724 184.855 46.4421 184.403 45.9776C183.952 45.5089 183.728 44.9165 183.732 44.2006C183.728 43.5955 183.892 43.0714 184.224 42.6282C184.561 42.1808 185.028 41.8356 185.624 41.5927C186.225 41.3455 186.918 41.2219 187.702 41.2219C188.852 41.2219 189.758 41.467 190.418 41.957C191.083 42.4471 191.494 43.1097 191.652 43.945Z" fill="white"/>
<defs>
<filter id="filter0_d_305_2636" x="43.2344" y="73.3477" width="26.8125" height="10.6992" filterUnits="userSpaceOnUse" color-interpolation-filters="sRGB">
<feFlood flood-opacity="0" result="BackgroundImageFix"/>
<feColorMatrix in="SourceAlpha" type="matrix" values="0 0 0 0 0 0 0 0 0 0 0 0 0 0 0 0 0 0 127 0" result="hardAlpha"/>
<feOffset dy="4"/>
<feGaussianBlur stdDeviation="2"/>
<feComposite in2="hardAlpha" operator="out"/>
<feColorMatrix type="matrix" values="0 0 0 0 1 0 0 0 0 1 0 0 0 0 1 0 0 0 1 0"/>
<feBlend mode="normal" in2="BackgroundImageFix" result="effect1_dropShadow_305_2636"/>
<feBlend mode="normal" in="SourceGraphic" in2="effect1_dropShadow_305_2636" result="shape"/>
</filter>
<linearGradient id="paint0_linear_305_2636" x1="0" y1="2.5" x2="53" y2="2.5" gradientUnits="userSpaceOnUse">
<stop stop-color="#059669"/>
<stop offset="0.5" stop-color="#10B981"/>
<stop offset="1" stop-color="#EA580C"/>
</linearGradient>
<linearGradient id="paint1_linear_305_2636" x1="0" y1="2.5" x2="53" y2="2.5" gradientUnits="userSpaceOnUse">
<stop stop-opacity="0"/>
<stop offset="1" stop-opacity="0"/>
</linearGradient>
<clipPath id="clip0_305_2636">
<rect width="57.1042" height="36.2083" fill="white" transform="translate(26.4473 32.875)"/>
</clipPath>
<clipPath id="clip1_305_2636">
<rect width="49.1042" height="31.0208" fill="white" transform="translate(30.4473 34.9922)"/>
</clipPath>
<clipPath id="clip2_305_2636">
<rect width="48.8958" height="15.7708" fill="white" transform="translate(30.5527 20.5312)"/>
</clipPath>
<clipPath id="clip3_305_2636">
<rect width="33.6042" height="12.125" fill="white" transform="translate(38.1973 35.0234)"/>
</clipPath>
<clipPath id="clip4_305_2636">
<rect width="4.48958" height="7.89583" fill="white" transform="translate(39.0312 49.2188)"/>
</clipPath>
<clipPath id="clip5_305_2636">
<rect width="7.47917" height="1.69792" fill="white" transform="translate(45.75 54.8555)"/>
</clipPath>
<clipPath id="clip6_305_2636">
<rect width="4.48958" height="7.625" fill="white" transform="translate(55.459 49.5)"/>
</clipPath>
<clipPath id="clip7_305_2636">
<rect width="8.3125" height="7.15625" fill="white" transform="translate(63.25 49.125)"/>
</clipPath>
</defs>
</svg>
